<?xml version="1.0" ?><!DOCTYPE svg  PUBLIC '-//W3C//DTD SVG 1.1//EN'  'http://www.w3.org/Graphics/SVG/1.1/DTD/svg11.dtd'><svg enable-background="new 0 0 512 512" height="512px" id="Layer_1" version="1.1" viewBox="0 0 512 512" width="512px" xml:space="preserve" xmlns="http://www.w3.org/2000/svg" xmlns:xlink="http://www.w3.org/1999/xlink"><path d="M480,512H32c-17.688,0-32-14.312-32-32V32C0,14.312,14.312,0,32,0h448c17.688,0,32,14.312,32,32v448  C512,497.688,497.688,512,480,512z M448,64H64v384h384V64z M224,224h-96v-96h96V224z M224,384h-96v-96h96V384z M384,224h-96v-96h96  V224z M384,384h-96v-96h96V384z"/></svg>